<svg xmlns="http://www.w3.org/2000/svg" viewBox="0 0 64 64" role="img" aria-label="Vehicle Duty Calculator logo">
  <defs>
    <linearGradient id="vdc-bg" x1="0" y1="0" x2="1" y2="1">
      <stop offset="0" stop-color="#10b981"/>
      <stop offset="1" stop-color="#047857"/>
    </linearGradient>
    <linearGradient id="vdc-road" x1="0" y1="0" x2="0" y2="1">
      <stop offset="0" stop-color="#ffffff"/>
      <stop offset="1" stop-color="#d1fae5"/>
    </linearGradient>
  </defs>
  <rect x="3" y="3" width="58" height="58" rx="16" fill="url(#vdc-bg)"/>
  <path d="M12 40 L14 27 a3 3 0 0 1 3-3 h7 l5-7 h12 l5 7 h7 a3 3 0 0 1 3 3 l2 13 v7 h-7 v-4 h-6 v4 H19 v-4 h-6 v4 H12 z"
        fill="#f8fafc"/>
  <circle cx="23" cy="44" r="4" fill="#0f172a" stroke="#f8fafc" stroke-width="2"/>
  <circle cx="41" cy="44" r="4" fill="#0f172a" stroke="#f8fafc" stroke-width="2"/>
  <path d="M20 31 h24" stroke="#a7f3d0" stroke-width="2" stroke-linecap="round" opacity=".9"/>
  <path d="M18 37 h28" stroke="url(#vdc-road)" stroke-width="3" stroke-linecap="round" opacity=".7"/>
</svg>

